<?xml version="1.0" encoding="UTF-8"?>
<svg id="Layer_2" data-name="Layer 2" xmlns="http://www.w3.org/2000/svg" viewBox="0 0 317.88 51.77">
  <defs>
    <style>
      .cls-1 {
        fill: #231f20;
      }

      .cls-1, .cls-2 {
        stroke-width: 0px;
      }

      .cls-2 {
        fill: #9E3600;
      }
    </style>
  </defs>
  <g id="Layer_1-2" data-name="Layer 1">
    <g>
      <path class="cls-2" d="M17.06,50.98H0V1.66h17.06c7.58,0,12.77,1.92,15.55,5.76,2.78,3.84,4.18,9.86,4.18,18.07,0,4.18-.28,7.72-.83,10.62-.55,2.9-1.52,5.53-2.92,7.88-2.74,4.66-8.06,6.98-15.98,6.98ZM28.51,25.49c0-5.95-.75-10.25-2.23-12.89-1.49-2.64-4.56-3.96-9.22-3.96H7.99v35.28h9.07c4.75,0,7.92-1.75,9.5-5.26.77-1.78,1.28-3.67,1.55-5.69.26-2.02.4-4.51.4-7.49Z"/>
      <path class="cls-2" d="M45.22,8.86V.58h7.85v8.28h-7.85ZM45.22,50.98V14.98h7.85v36h-7.85Z"/>
      <path class="cls-2" d="M87.55,22.39c-5.66-.77-9.77-1.15-12.31-1.15s-4.31.3-5.29.9c-.98.6-1.48,1.55-1.48,2.84s.54,2.21,1.62,2.74c1.08.53,3.62,1.14,7.63,1.84,4.01.7,6.85,1.79,8.53,3.28,1.68,1.49,2.52,4.13,2.52,7.92s-1.21,6.58-3.64,8.35c-2.42,1.78-5.96,2.66-10.62,2.66-2.93,0-6.62-.41-11.09-1.22l-2.23-.36.29-6.55c5.76.77,9.91,1.15,12.46,1.15s4.36-.31,5.44-.94c1.08-.62,1.62-1.66,1.62-3.1s-.52-2.44-1.55-2.99c-1.03-.55-3.5-1.15-7.42-1.8-3.91-.65-6.78-1.67-8.6-3.06-1.83-1.39-2.74-3.94-2.74-7.63s1.26-6.46,3.78-8.28c2.52-1.82,5.75-2.74,9.68-2.74,3.07,0,6.84.38,11.3,1.15l2.23.43-.14,6.55Z"/>
      <path class="cls-2" d="M104.18,50.98h-7.85V0h7.85v16.85c3.55-1.78,6.84-2.66,9.86-2.66,4.8,0,8.08,1.36,9.83,4.07,1.75,2.71,2.63,7.19,2.63,13.43v19.3h-7.85v-19.08c0-3.89-.41-6.65-1.22-8.28-.82-1.63-2.54-2.45-5.18-2.45-2.3,0-4.61.38-6.91,1.15l-1.15.43v28.22Z"/>
      <path class="cls-1" d="M153.65,50.98h-17.06V1.66h17.06c7.58,0,12.77,1.92,15.55,5.76,2.78,3.84,4.18,9.86,4.18,18.07,0,4.18-.28,7.72-.83,10.62-.55,2.9-1.52,5.53-2.92,7.88-2.74,4.66-8.06,6.98-15.98,6.98ZM165.09,25.49c0-5.95-.75-10.25-2.23-12.89-1.49-2.64-4.56-3.96-9.22-3.96h-9.07v35.28h9.07c4.75,0,7.92-1.75,9.5-5.26.77-1.78,1.28-3.67,1.55-5.69.26-2.02.4-4.51.4-7.49Z"/>
      <path class="cls-1" d="M207.43,44.5l2.02-.22.14,5.83c-5.47,1.1-10.32,1.66-14.54,1.66-5.33,0-9.16-1.46-11.48-4.39-2.33-2.93-3.49-7.61-3.49-14.04,0-12.77,5.21-19.15,15.62-19.15s15.12,5.5,15.12,16.49l-.5,5.62h-22.32c.05,2.98.7,5.16,1.94,6.55,1.25,1.39,3.58,2.09,6.98,2.09s6.91-.14,10.51-.43ZM203.11,30.24c0-3.55-.57-6.04-1.69-7.45-1.13-1.42-3.04-2.12-5.72-2.12s-4.64.74-5.87,2.23c-1.22,1.49-1.86,3.94-1.91,7.34h15.19Z"/>
      <path class="cls-1" d="M218.8,50.98V0h7.85v50.98h-7.85Z"/>
      <path class="cls-1" d="M236.59,8.86V.58h7.85v8.28h-7.85ZM236.59,50.98V14.98h7.85v36h-7.85Z"/>
      <path class="cls-1" d="M278.92,22.39c-5.66-.77-9.77-1.15-12.31-1.15s-4.31.3-5.29.9c-.98.6-1.48,1.55-1.48,2.84s.54,2.21,1.62,2.74c1.08.53,3.62,1.14,7.63,1.84,4.01.7,6.85,1.79,8.53,3.28,1.68,1.49,2.52,4.13,2.52,7.92s-1.21,6.58-3.64,8.35c-2.42,1.78-5.96,2.66-10.62,2.66-2.93,0-6.62-.41-11.09-1.22l-2.23-.36.29-6.55c5.76.77,9.91,1.15,12.46,1.15s4.36-.31,5.44-.94c1.08-.62,1.62-1.66,1.62-3.1s-.52-2.44-1.55-2.99c-1.03-.55-3.5-1.15-7.42-1.8-3.91-.65-6.78-1.67-8.6-3.06-1.83-1.39-2.74-3.94-2.74-7.63s1.26-6.46,3.78-8.28c2.52-1.82,5.75-2.74,9.68-2.74,3.07,0,6.84.38,11.3,1.15l2.23.43-.14,6.55Z"/>
      <path class="cls-1" d="M295.56,50.98h-7.85V0h7.85v16.85c3.55-1.78,6.84-2.66,9.86-2.66,4.8,0,8.08,1.36,9.83,4.07,1.75,2.71,2.63,7.19,2.63,13.43v19.3h-7.85v-19.08c0-3.89-.41-6.65-1.22-8.28-.82-1.63-2.54-2.45-5.18-2.45-2.3,0-4.61.38-6.91,1.15l-1.15.43v28.22Z"/>
    </g>
  </g>
</svg>